<?xml version="1.0" encoding="UTF-8"?>
<svg id="Layer_2" xmlns="http://www.w3.org/2000/svg" xmlns:xlink="http://www.w3.org/1999/xlink"
    viewBox="0 0 386.47 373.41">
    <defs>
        <linearGradient id="linear-gradient" x1="182.98" y1="-47.34" x2="-5.23" y2="314.11"
            gradientUnits="userSpaceOnUse">
            <stop offset="0" stop-color="#f8920a" />
            <stop offset="1" stop-color="#d716fb" />
        </linearGradient>
        <linearGradient id="linear-gradient-2" x1="160.57" y1="-59.01" x2="-27.64" y2="302.45"
            xlink:href="#linear-gradient" />
        <linearGradient id="linear-gradient-3" x1="416.47" y1="74.24" x2="228.26" y2="435.7"
            xlink:href="#linear-gradient" />
        <linearGradient id="linear-gradient-4" x1="238.5" y1="-18.43" x2="50.28" y2="343.02"
            xlink:href="#linear-gradient" />
        <linearGradient id="linear-gradient-5" x1="340.23" y1="34.54" x2="152.02" y2="395.99"
            xlink:href="#linear-gradient" />
        <linearGradient id="linear-gradient-6" x1="393.28" y1="62.16" x2="205.07" y2="423.62"
            xlink:href="#linear-gradient" />
    </defs>
    <g id="Layer_1-2">
        <path
            d="m96.06,130.24l-13.78-14.21c5.89-5.61,9.5-13.43,9.5-22.14,0-16.88-13.7-30.58-30.58-30.58s-30.62,13.7-30.62,30.58,13.7,30.62,30.62,30.62c1.49,0,2.94-.08,4.4-.39v.59l15.03,15.51,15.43,15.9v61.87l-15.43,15.94-14.72,15.15c-1.53-.27-3.14-.43-4.71-.43-16.92,0-30.62,13.7-30.62,30.62s13.7,30.58,30.62,30.58,30.58-13.7,30.58-30.58c0-8.44-3.42-16.13-8.99-21.63l13.27-13.7,15-15.43v-82.83l-15-15.43Zm-30.46-20.88c-1.37.43-2.9.63-4.4.63-8.95,0-16.09-7.18-16.09-16.1s7.14-16.09,16.09-16.09c5.93,0,11.15,3.18,13.9,8.05,1.37,2.32,2.2,5.06,2.2,8.05,0,7.42-4.95,13.58-11.7,15.47Zm0,185.32c-1.37.43-2.9.67-4.4.67-8.95,0-16.09-7.18-16.09-16.1s7.14-16.13,16.09-16.13c1.49,0,3.02.24,4.4.67,6.75,1.88,11.7,8.05,11.7,15.47s-4.95,13.54-11.7,15.43Z"
            fill="url(#linear-gradient)" stroke-width="0" />
        <path
            d="m30.62,160c-16.88,0-30.62,13.7-30.62,30.58s13.74,30.62,30.62,30.62,30.58-13.7,30.58-30.62-13.7-30.58-30.58-30.58Zm0,46.67c-8.91,0-16.09-7.14-16.09-16.09s7.18-16.1,16.09-16.1,16.09,7.18,16.09,16.1-7.18,16.09-16.09,16.09Z"
            fill="url(#linear-gradient-2)" stroke-width="0" />
        <path
            d="m325.27,190.63c0-16.9,13.7-30.6,30.6-30.6s30.6,13.7,30.6,30.6-13.7,30.53-30.6,30.53-30.6-13.63-30.6-30.53Z"
            fill="url(#linear-gradient-3)" stroke-width="0" />
        <path
            d="m158.43,255.39l18.25-18.8v-100.57l-18.25-18.76-18.8-19.35v-31.37c12.4-3.89,21.47-15.35,21.47-29.05,0-16.88-13.7-30.58-30.58-30.58s-30.62,13.7-30.62,30.58c0,13.7,9.07,25.16,21.47,29.05v44.04l18.25,18.76,18.8,19.39v75.1l-18.8,19.35-18.25,18.8v49.38c-12.4,3.93-21.47,15.35-21.47,29.05,0,16.92,13.7,30.62,30.62,30.62s30.58-13.7,30.58-30.62c0-13.7-9.07-25.12-21.47-29.05v-36.63l18.8-19.35Zm-27.91-201.81c-8.95,0-16.13-7.18-16.13-16.09s7.18-16.1,16.13-16.1,16.09,7.18,16.09,16.1-7.18,16.09-16.09,16.09Zm16.09,286.84c0,8.91-7.18,16.09-16.09,16.09s-16.13-7.18-16.13-16.09,7.18-16.09,16.13-16.09,16.09,7.18,16.09,16.09Z"
            fill="url(#linear-gradient-4)" stroke-width="0" />
        <path
            d="m212.13,147.98c0-11.26,1.81-22.45,5.37-33.14,4.78-14.32,8.03-16.54,10.74-25.78,4.03-13.7-.91-16.24,0-39.21.73-18.4,1.11-28.01,8.06-36.52,7.27-8.91,21.22-15.99,35.45-12.35,16.39,4.19,24.19,20.3,25.78,31.69,1.96,14.02-4.86,25.19-7.52,29.54-3.74,6.12-6.25,7.34-16.65,17.73-4.88,4.87-16.24,16.21-24.17,26.86l-.16.21c-11.41,15.35-17.57,33.96-17.57,53.08v65.16c0,11.81,2.69,23.55,8.46,33.85.04.08.09.16.14.24,1.51,2.68,6,10.33,19.34,24.71,15.5,16.71,17.49,15.05,23.63,24.17,4.93,7.31,11.69,17.35,10.74,30.62-.12,1.73-2.05,23.35-20.95,31.69-14.57,6.43-31.42,1.51-40.28-8.59-9.89-11.27-8.22-27.13-7.52-33.84,1.29-12.26,5.68-14.3,5.37-25.78-.17-6.46-2.44-12.54-6.98-24.71-5.49-14.71-9.19-19.67-10.74-31.15-.7-5.16-.67-9.48-.54-12.35v-86.1Z"
            fill="url(#linear-gradient-5)" stroke-width="0" />
        <path
            d="m298.03,276.29c-.76-4.61-2.3-11.5-5.74-19.24-6.23-14.03-12.35-16.56-18.4-27.26-7.76-13.73-7.65-27.2-7.52-42.97.02-3.07.33-23.04,7.47-37.35,1.39-2.78,2.74-5.08,2.74-5.08,4.94-8.41,8.24-10.46,12.5-17.26,2.91-4.65,4.44-8.59,5.23-10.67,3.8-9.97,3.79-17.37,3.75-19.23-.02-1.37-.11-2.51-.18-3.29h0c0-16.9,13.7-30.6,30.6-30.6s30.6,13.71,30.6,30.6c0,10.82-5.66,20.26-14.14,25.67.01,0,.03.01.04.02-3.11,1.85-7.77,4.6-13.49,7.87-5.17,2.96-7.83,4.42-8.98,5.07-6.46,3.7-16.32,11.17-23.9,22.02-3.68,5.26-11.47,16.4-12.35,32.77-.25,4.53-1.02,18.82,7.52,31.69,6.38,9.61,12.68,10.48,45.49,31.62.07.04.12.08.19.12,4.15,1.6,7.88,4.03,10.93,7.17.03.02.07.05.1.07-.01,0-.02.01-.03.02,5.32,5.51,8.63,12.97,8.63,21.23,0,16.9-13.7,30.53-30.6,30.53s-30.6-13.63-30.6-30.53c0-1.03.2-2,.3-3-.05,0-.1.01-.15.02Z"
            fill="url(#linear-gradient-6)" stroke-width="0" />
    </g>
</svg>